<svg width="4828" height="863" viewBox="0 0 4828 863" fill="none" xmlns="http://www.w3.org/2000/svg">
<path d="M545.761 369.115C596.454 395.151 596.454 467.615 545.761 493.651L157.73 692.941C111.147 716.866 55.75 683.041 55.75 630.673L55.7501 232.093C55.7501 179.725 111.147 145.9 157.73 169.825L545.761 369.115Z" fill="url(#paint0_linear_2359_40)"/>
<path d="M55.75 340.883L0 430.883H583.779L55.75 340.883Z" fill="url(#paint1_linear_2359_40)"/>
<path d="M55.75 521L0 430.883H583.779L55.75 521Z" fill="url(#paint2_linear_2359_40)"/>
<path d="M993.688 643.544C956.189 643.544 922.013 635 891.16 617.912C860.781 600.349 836.811 576.141 819.248 545.288C802.16 514.435 793.616 480.259 793.616 442.76C793.616 385.325 812.603 337.621 850.576 299.648C889.024 261.2 936.728 241.976 993.688 241.976C1039.26 241.976 1078.65 254.555 1111.88 279.712C1145.58 304.869 1168.37 338.333 1180.23 380.104H1120.42C1109.03 355.421 1091.94 335.96 1069.16 321.72C1046.85 307.48 1021.69 300.36 993.688 300.36C954.291 300.36 921.301 314.125 894.72 341.656C868.613 368.712 855.56 402.413 855.56 442.76C855.56 469.341 861.493 493.549 873.36 515.384C885.227 536.744 901.603 553.832 922.488 566.648C943.848 578.989 967.581 585.16 993.688 585.16C1021.69 585.16 1046.61 578.04 1068.45 563.8C1090.76 549.085 1107.85 528.912 1119.71 503.28H1180.94C1169.08 546 1146.06 580.176 1111.88 605.808C1078.18 630.965 1038.78 643.544 993.688 643.544ZM1237.28 635V113.104H1297.8V635H1237.28ZM1750.53 444.184C1750.53 449.405 1750.05 456.763 1749.1 466.256H1420.87C1425.62 501.856 1440.33 530.573 1465.02 552.408C1489.7 573.768 1520.08 584.448 1556.15 584.448C1582.73 584.448 1606.23 578.752 1626.64 567.36C1647.52 555.493 1664.14 538.88 1676.48 517.52H1739.85C1723.71 557.392 1699.5 588.483 1667.22 610.792C1634.95 632.627 1597.92 643.544 1556.15 643.544C1500.62 643.544 1454.1 624.32 1416.6 585.872C1379.1 547.424 1360.35 499.72 1360.35 442.76C1360.35 385.325 1379.1 337.621 1416.6 299.648C1454.1 261.2 1500.62 241.976 1556.15 241.976C1613.59 241.976 1660.34 261.437 1696.42 300.36C1732.49 339.283 1750.53 387.224 1750.53 444.184ZM1556.15 299.648C1533.37 299.648 1512.48 304.157 1493.5 313.176C1474.98 322.195 1459.56 335.248 1447.22 352.336C1434.87 368.949 1426.57 388.173 1422.3 410.008H1689.3C1685.02 387.699 1676.72 368.237 1664.38 351.624C1652.03 334.536 1636.61 321.72 1618.1 313.176C1599.58 304.157 1578.94 299.648 1556.15 299.648ZM2139.87 250.52H2188.29V635H2137.74L2131.33 576.616C2113.29 597.976 2091.22 614.589 2065.11 626.456C2039.48 637.848 2011.24 643.544 1980.39 643.544C1923.9 643.544 1876.67 624.557 1838.7 586.584C1800.73 548.136 1781.74 500.195 1781.74 442.76C1781.74 385.325 1800.73 337.621 1838.7 299.648C1876.67 261.2 1923.9 241.976 1980.39 241.976C2011.71 241.976 2040.19 247.909 2065.83 259.776C2091.93 271.643 2114.01 288.256 2132.04 309.616L2139.87 250.52ZM1883.55 544.576C1910.61 571.632 1944.55 585.16 1985.37 585.16C2026.19 585.16 2059.89 571.632 2086.47 544.576C2113.06 517.52 2126.35 483.581 2126.35 442.76C2126.35 401.939 2113.06 368 2086.47 340.944C2059.89 313.888 2026.19 300.36 1985.37 300.36C1944.55 300.36 1910.61 314.125 1883.55 341.656C1856.97 368.712 1843.68 402.413 1843.68 442.76C1843.68 483.107 1856.97 517.045 1883.55 544.576ZM2456.87 248.384H2491.05V306.056H2451.89C2417.24 306.056 2390.18 316.736 2370.72 338.096C2351.73 358.981 2342.24 388.411 2342.24 426.384V635H2281.72V250.52H2324.44L2334.41 308.904C2362.41 268.557 2403.23 248.384 2456.87 248.384ZM2516.49 635V111.68H2620.45V635H2516.49ZM3005.73 249.808H3083.34V634.288H3001.46L2992.92 600.112C2957.79 630.491 2916.26 645.68 2868.32 645.68C2810.41 645.68 2762.23 626.456 2723.78 588.008C2685.81 549.085 2666.82 500.432 2666.82 442.048C2666.82 384.139 2685.81 335.96 2723.78 297.512C2762.23 259.064 2810.41 239.84 2868.32 239.84C2917.21 239.84 2959.22 255.504 2994.34 286.832L3005.73 249.808ZM2801.39 517.52C2821.33 537.456 2846.25 547.424 2876.15 547.424C2906.53 547.424 2931.69 537.456 2951.62 517.52C2971.56 497.584 2981.53 472.427 2981.53 442.048C2981.53 411.669 2971.56 386.512 2951.62 366.576C2931.69 346.64 2906.77 336.672 2876.86 336.672C2856.93 336.672 2838.89 341.419 2822.75 350.912C2807.09 359.931 2794.74 372.509 2785.73 388.648C2776.71 404.312 2772.2 422.112 2772.2 442.048C2772.2 472.427 2781.93 497.584 2801.39 517.52ZM3461.01 598.688C3428.26 630.016 3384.59 645.68 3330 645.68C3275.89 645.68 3232.22 629.779 3198.99 597.976C3166.24 566.173 3149.86 524.403 3149.86 472.664V250.52H3253.82V460.56C3253.82 488.091 3260.46 509.688 3273.75 525.352C3287.52 540.541 3306.27 548.136 3330 548.136C3354.21 548.136 3372.96 540.541 3386.25 525.352C3400.01 509.688 3406.9 488.091 3406.9 460.56V250.52H3510.85V472.664C3510.85 524.877 3494.23 566.885 3461.01 598.688ZM3796.23 241.264C3839.89 241.264 3874.31 255.979 3899.47 285.408C3925.1 314.363 3937.91 353.285 3937.91 402.176V635H3833.96V418.552C3833.96 361.117 3811.65 332.4 3767.03 332.4C3749.47 332.4 3734.04 336.435 3720.75 344.504C3707.94 352.573 3697.97 364.203 3690.85 379.392C3684.2 394.581 3680.88 412.381 3680.88 432.792V635H3576.93V250.52H3648.13L3668.78 298.224C3675.9 289.205 3683.97 281.373 3692.99 274.728C3702.48 267.608 3712.68 261.675 3723.6 256.928C3734.52 251.707 3745.91 247.909 3757.78 245.536C3770.12 242.688 3782.93 241.264 3796.23 241.264ZM4183.29 645.68C4145.31 645.68 4110.66 636.899 4079.33 619.336C4048.48 601.299 4024.04 576.616 4006 545.288C3988.44 513.96 3979.65 479.309 3979.65 441.336C3979.65 383.901 3999.12 335.96 4038.04 297.512C4076.96 259.064 4125.61 239.84 4184 239.84C4233.84 239.84 4276.56 254.317 4312.16 283.272C4347.76 311.752 4370.31 349.725 4379.8 397.192H4276.56C4268.01 378.68 4255.44 364.203 4238.82 353.76C4222.68 342.843 4204.17 337.384 4183.29 337.384C4155.28 337.384 4131.79 347.352 4112.8 367.288C4094.29 387.224 4085.03 412.144 4085.03 442.048C4085.03 471.952 4094.52 497.109 4113.51 517.52C4132.5 537.931 4155.76 548.136 4183.29 548.136C4204.17 548.136 4222.68 542.677 4238.82 531.76C4254.96 520.368 4267.54 504.229 4276.56 483.344H4381.22C4371.73 532.235 4348.95 571.632 4312.87 601.536C4276.8 630.965 4233.6 645.68 4183.29 645.68ZM4641.1 241.264C4684.77 241.264 4719.19 255.741 4744.34 284.696C4769.5 313.651 4782.08 352.573 4782.08 401.464V635H4678.13V418.552C4678.13 389.597 4672.67 368 4661.75 353.76C4651.31 339.52 4634.46 332.4 4611.2 332.4C4585.09 332.4 4564.21 341.419 4548.54 359.456C4532.88 377.493 4525.05 401.939 4525.05 432.792V635H4421.09V111.68H4525.05V286.12C4556.37 256.216 4595.06 241.264 4641.1 241.264Z" fill="#51BEFF"/>
<defs>
<linearGradient id="paint0_linear_2359_40" x1="585.482" y1="356.554" x2="9.4951" y2="389.939" gradientUnits="userSpaceOnUse">
<stop offset="0.104167" stop-color="#52C1FF"/>
<stop offset="0.9999" stop-color="#2F93EF"/>
</linearGradient>
<linearGradient id="paint1_linear_2359_40" x1="578.728" y1="411.715" x2="-1.26496" y2="411.715" gradientUnits="userSpaceOnUse">
<stop offset="0.0222966" stop-color="#5DCEF2"/>
<stop offset="1" stop-color="#58A6EE"/>
</linearGradient>
<linearGradient id="paint2_linear_2359_40" x1="578.945" y1="472.597" x2="-1.26544" y2="472.597" gradientUnits="userSpaceOnUse">
<stop offset="0.0222966" stop-color="#27B5F2"/>
<stop offset="1" stop-color="#11749E"/>
</linearGradient>
</defs>
</svg>
