<svg width="751" height="173" viewBox="0 0 751 173" fill="none" xmlns="http://www.w3.org/2000/svg">
<g filter="url(#filter0_dddd_1304_1749)">
<path d="M125.317 3.01597C139.077 2.43543 147.951 17.8067 140.569 29.4327L84.0583 118.424C77.2742 129.108 61.5796 128.602 55.1662 117.494L6.35255 32.9461C-0.0609028 21.8376 7.34875 7.99314 19.993 7.45967L125.317 3.01597Z" fill="url(#paint0_linear_1304_1749)"/>
<path d="M19.676 56.0229L19.0724 81.826L140.81 11.541L19.676 56.0229Z" fill="url(#paint1_linear_1304_1749)"/>
<path d="M41.7347 94.2297L19.0724 81.826L140.81 11.541L41.7347 94.2297Z" fill="url(#paint2_linear_1304_1749)"/>
</g>
<path d="M213.657 100.606C208.629 100.606 203.983 99.7789 199.718 98.124C195.517 96.4054 191.857 94.0185 188.738 90.9633C185.62 87.8445 183.201 84.1846 181.482 79.9837C179.827 75.7191 179 71.0409 179 65.9489C179 60.9842 179.891 56.4014 181.673 52.2004C183.456 47.9995 185.906 44.3715 189.025 41.3163C192.207 38.1974 195.931 35.7787 200.195 34.0602C204.524 32.3416 209.234 31.4823 214.326 31.4823C217.508 31.4823 220.627 31.8961 223.682 32.7235C226.738 33.551 229.57 34.7922 232.18 36.4471C234.853 38.0383 237.144 39.9478 239.054 42.1756L229.124 53.5371C227.788 52.1368 226.356 50.9274 224.828 49.909C223.364 48.827 221.741 47.9995 219.959 47.4267C218.177 46.8538 216.267 46.5674 214.23 46.5674C211.684 46.5674 209.266 47.0448 206.974 47.9995C204.746 48.8906 202.773 50.1955 201.055 51.914C199.4 53.5689 198.095 55.6057 197.14 58.0244C196.186 60.4431 195.708 63.1483 195.708 66.1398C195.708 69.0677 196.186 71.741 197.14 74.1597C198.095 76.5148 199.432 78.5516 201.15 80.2701C202.869 81.9887 204.937 83.2935 207.356 84.1846C209.838 85.0757 212.575 85.5213 215.567 85.5213C217.604 85.5213 219.545 85.2348 221.391 84.662C223.237 84.0891 224.924 83.3253 226.451 82.3706C228.042 81.3522 229.443 80.2065 230.652 78.9335L238.481 91.3452C236.89 93.1274 234.757 94.7187 232.084 96.119C229.475 97.5193 226.547 98.6332 223.3 99.4606C220.118 100.224 216.904 100.606 213.657 100.606Z" fill="url(#paint3_linear_1304_1749)"/>
<path d="M246.915 99.6516V29H262.191V99.6516H246.915Z" fill="url(#paint4_linear_1304_1749)"/>
<path d="M297.893 100.606C292.292 100.606 287.423 99.4924 283.286 97.2647C279.148 94.9733 275.934 91.8863 273.643 88.0036C271.351 84.0573 270.206 79.57 270.206 74.5416C270.206 70.659 270.842 67.0946 272.115 63.8484C273.388 60.6023 275.17 57.8017 277.462 55.4466C279.753 53.0279 282.458 51.182 285.577 49.909C288.76 48.5724 292.228 47.9041 295.984 47.9041C299.548 47.9041 302.794 48.5406 305.722 49.8136C308.714 51.0866 311.292 52.8688 313.456 55.1602C315.62 57.4516 317.275 60.1567 318.421 63.2756C319.566 66.3944 320.075 69.7997 319.948 73.4914L319.853 77.5968H279.467L277.271 69.0041H307.441L305.818 70.8181V68.9086C305.69 67.3173 305.181 65.917 304.29 64.7077C303.463 63.4347 302.349 62.4481 300.949 61.748C299.548 61.0478 297.957 60.6977 296.175 60.6977C293.692 60.6977 291.56 61.2069 289.778 62.2253C288.059 63.1801 286.755 64.6122 285.863 66.5217C284.972 68.3676 284.527 70.659 284.527 73.3959C284.527 76.1965 285.1 78.647 286.245 80.7475C287.455 82.7843 289.173 84.3756 291.401 85.5213C293.692 86.667 296.398 87.2398 299.516 87.2398C301.681 87.2398 303.59 86.9216 305.245 86.2851C306.963 85.6486 308.809 84.5665 310.782 83.0389L317.943 93.1593C315.97 94.8778 313.87 96.2781 311.642 97.3602C309.414 98.4422 307.123 99.2378 304.768 99.747C302.476 100.32 300.185 100.606 297.893 100.606Z" fill="url(#paint5_linear_1304_1749)"/>
<path d="M347.248 100.511C342.983 100.511 339.164 99.397 335.791 97.1692C332.481 94.8778 329.84 91.759 327.867 87.8127C325.893 83.8027 324.907 79.2836 324.907 74.2552C324.907 69.0995 325.893 64.5486 327.867 60.6023C329.84 56.656 332.545 53.5689 335.982 51.3412C339.419 49.0498 343.334 47.9041 347.725 47.9041C350.144 47.9041 352.34 48.2541 354.313 48.9543C356.35 49.6544 358.132 50.641 359.66 51.914C361.187 53.1234 362.492 54.5555 363.574 56.2104C364.656 57.8017 365.452 59.5202 365.961 61.3661L362.81 60.9842V48.9543H377.991V99.6516H362.524V87.4308L365.961 87.3353C365.452 89.1175 364.624 90.8042 363.479 92.3955C362.333 93.9867 360.933 95.387 359.278 96.5964C357.623 97.8057 355.777 98.7605 353.74 99.4606C351.704 100.161 349.539 100.511 347.248 100.511ZM351.449 87.6217C353.804 87.6217 355.841 87.0807 357.559 85.9986C359.278 84.9166 360.615 83.389 361.569 81.4158C362.524 79.379 363.001 76.9921 363.001 74.2552C363.001 71.5182 362.524 69.1632 361.569 67.19C360.615 65.1532 359.278 63.5938 357.559 62.5118C355.841 61.3661 353.804 60.7932 351.449 60.7932C349.158 60.7932 347.153 61.3661 345.434 62.5118C343.779 63.5938 342.474 65.1532 341.52 67.19C340.565 69.1632 340.087 71.5182 340.087 74.2552C340.087 76.9921 340.565 79.379 341.52 81.4158C342.474 83.389 343.779 84.9166 345.434 85.9986C347.153 87.0807 349.158 87.6217 351.449 87.6217Z" fill="url(#paint6_linear_1304_1749)"/>
<path d="M390.324 99.6516V48.9543H404.837L405.505 65.4715L402.641 62.3208C403.405 59.5839 404.646 57.1333 406.364 54.9692C408.146 52.8051 410.215 51.0866 412.57 49.8136C414.925 48.5406 417.439 47.9041 420.113 47.9041C421.258 47.9041 422.309 47.9995 423.263 48.1905C424.282 48.3814 425.205 48.6042 426.032 48.8588L421.831 65.7579C421.131 65.3124 420.176 64.9623 418.967 64.7077C417.821 64.3894 416.612 64.2303 415.339 64.2303C413.939 64.2303 412.634 64.4849 411.424 64.9941C410.215 65.4397 409.197 66.108 408.369 66.9991C407.542 67.8902 406.873 68.9404 406.364 70.1498C405.919 71.3591 405.696 72.7276 405.696 74.2552V99.6516H390.324Z" fill="url(#paint7_linear_1304_1749)"/>
<path d="M435.683 99.6516V32.819H443.13V92.3955H475.209V99.6516H435.683Z" fill="url(#paint8_linear_1304_1749)"/>
<path d="M503.362 100.606C499.034 100.606 495.12 99.4924 491.619 97.2647C488.118 94.9733 485.35 91.8863 483.313 88.0036C481.276 84.0573 480.258 79.6018 480.258 74.6371C480.258 69.6087 481.308 65.1532 483.408 61.2706C485.509 57.3879 488.309 54.3327 491.81 52.105C495.374 49.8772 499.353 48.7633 503.744 48.7633C506.354 48.7633 508.773 49.1452 511 49.909C513.228 50.6728 515.201 51.7549 516.92 53.1552C518.702 54.4919 520.166 56.0831 521.312 57.929C522.521 59.7112 523.349 61.6525 523.794 63.7529L521.694 62.7027L521.98 49.8136H529.141V99.6516H521.885V87.4308L523.794 86.1896C523.349 88.0991 522.489 89.9449 521.216 91.7271C519.943 93.4457 518.384 94.9733 516.538 96.3099C514.756 97.6466 512.719 98.6968 510.428 99.4606C508.2 100.224 505.845 100.606 503.362 100.606ZM504.986 93.7321C508.295 93.7321 511.255 92.9365 513.865 91.3452C516.474 89.6903 518.511 87.4308 519.975 84.5665C521.503 81.6386 522.267 78.3288 522.267 74.6371C522.267 70.9454 521.503 67.6674 519.975 64.8032C518.511 61.9389 516.474 59.6793 513.865 58.0244C511.255 56.3695 508.295 55.5421 504.986 55.5421C501.612 55.5421 498.621 56.3695 496.011 58.0244C493.465 59.6793 491.428 61.9389 489.9 64.8032C488.437 67.6674 487.705 70.9454 487.705 74.6371C487.705 78.2652 488.437 81.5431 489.9 84.471C491.364 87.3353 493.401 89.5949 496.011 91.2498C498.621 92.9047 501.612 93.7321 504.986 93.7321Z" fill="url(#paint9_linear_1304_1749)"/>
<path d="M558.676 100.606C554.857 100.606 551.611 99.8425 548.938 98.3149C546.328 96.7237 544.323 94.4323 542.923 91.4407C541.586 88.4492 540.918 84.7256 540.918 80.2701V49.8136H548.174V78.838C548.174 82.2115 548.619 85.0439 549.511 87.3353C550.465 89.563 551.866 91.2498 553.711 92.3955C555.621 93.5412 557.944 94.114 560.681 94.114C562.782 94.114 564.723 93.7639 566.505 93.0638C568.287 92.3 569.847 91.2816 571.183 90.0086C572.52 88.7356 573.57 87.2398 574.334 85.5213C575.098 83.8027 575.48 81.9887 575.48 80.0792V49.8136H582.64V99.6516H575.575L575.289 89.1493L576.435 88.5765C575.671 90.8042 574.398 92.841 572.616 94.6869C570.833 96.4691 568.701 97.9012 566.219 98.9832C563.8 100.065 561.286 100.606 558.676 100.606Z" fill="url(#paint10_linear_1304_1749)"/>
<path d="M595.437 99.6516V49.8136H602.502L602.789 60.2204L601.643 60.6977C602.279 58.5336 603.521 56.5605 605.366 54.7783C607.212 52.9961 609.408 51.5639 611.954 50.4819C614.564 49.3362 617.237 48.7633 619.974 48.7633C623.666 48.7633 626.753 49.4953 629.235 50.9593C631.718 52.4232 633.595 54.6828 634.868 57.738C636.141 60.7932 636.778 64.6759 636.778 69.386V99.6516H629.522V69.7679C629.522 66.4581 629.076 63.7529 628.185 61.6525C627.358 59.4884 626.053 57.8971 624.27 56.8787C622.488 55.8603 620.292 55.383 617.683 55.4466C615.519 55.4466 613.514 55.8285 611.668 56.5923C609.822 57.2925 608.231 58.279 606.894 59.552C605.557 60.825 604.507 62.289 603.743 63.9439C602.98 65.5988 602.598 67.381 602.598 69.2905V99.6516H599.065C598.62 99.6516 598.11 99.6516 597.537 99.6516C596.965 99.6516 596.264 99.6516 595.437 99.6516Z" fill="url(#paint11_linear_1304_1749)"/>
<path d="M670.306 100.606C665.596 100.606 661.395 99.4924 657.703 97.2647C654.011 94.9733 651.084 91.8863 648.919 88.0036C646.819 84.0573 645.769 79.6018 645.769 74.6371C645.769 69.6724 646.819 65.2487 648.919 61.3661C651.084 57.4198 654.011 54.3327 657.703 52.105C661.395 49.8772 665.628 48.7633 670.401 48.7633C674.666 48.7633 678.549 49.6226 682.049 51.3412C685.55 52.9961 688.351 55.3193 690.451 58.3109L686.25 63.4665C685.041 61.8753 683.577 60.475 681.858 59.2656C680.203 58.0563 678.389 57.1333 676.416 56.4968C674.507 55.7967 672.597 55.4466 670.688 55.4466C667.314 55.4466 664.291 56.3059 661.618 58.0244C658.944 59.6793 656.812 61.9389 655.221 64.8032C653.693 67.6674 652.929 70.9454 652.929 74.6371C652.929 78.3288 653.693 81.6386 655.221 84.5665C656.812 87.4308 658.944 89.6903 661.618 91.3452C664.291 93.0001 667.283 93.8276 670.592 93.8276C672.502 93.8276 674.38 93.5412 676.225 92.9683C678.071 92.3318 679.822 91.4407 681.477 90.295C683.131 89.1493 684.659 87.7172 686.059 85.9986L690.26 91.1543C688.096 94.0185 685.2 96.3099 681.572 98.0285C677.944 99.747 674.189 100.606 670.306 100.606Z" fill="url(#paint12_linear_1304_1749)"/>
<path d="M698.411 99.6516V29H705.571V60.6977L704.139 62.1299C704.839 59.5202 706.144 57.2288 708.054 55.2556C709.963 53.2188 712.191 51.6276 714.737 50.4819C717.347 49.3362 719.988 48.7633 722.661 48.7633C726.48 48.7633 729.663 49.4953 732.209 50.9593C734.755 52.4232 736.633 54.6828 737.842 57.738C739.115 60.7932 739.751 64.6759 739.751 69.386V99.6516H732.495V69.7679C732.495 66.4581 732.05 63.7529 731.159 61.6525C730.331 59.4884 729.026 57.8971 727.244 56.8787C725.462 55.8603 723.234 55.383 720.561 55.4466C718.46 55.4466 716.487 55.8285 714.641 56.5923C712.796 57.2925 711.204 58.279 709.868 59.552C708.531 60.825 707.481 62.289 706.717 63.9439C705.953 65.5988 705.571 67.381 705.571 69.2905V99.6516H702.039C701.593 99.6516 701.084 99.6516 700.511 99.6516C699.938 99.6516 699.238 99.6516 698.411 99.6516Z" fill="url(#paint13_linear_1304_1749)"/>
<defs>
<filter id="filter0_dddd_1304_1749" x="0" y="0" width="185.235" height="172.14" filterUnits="userSpaceOnUse" color-interpolation-filters="sRGB">
<feFlood flood-opacity="0" result="BackgroundImageFix"/>
<feColorMatrix in="SourceAlpha" type="matrix" values="0 0 0 0 0 0 0 0 0 0 0 0 0 0 0 0 0 0 127 0" result="hardAlpha"/>
<feOffset dx="2" dy="2"/>
<feGaussianBlur stdDeviation="2.5"/>
<feColorMatrix type="matrix" values="0 0 0 0 0.133333 0 0 0 0 0.466667 0 0 0 0 0.835294 0 0 0 0.1 0"/>
<feBlend mode="normal" in2="BackgroundImageFix" result="effect1_dropShadow_1304_1749"/>
<feColorMatrix in="SourceAlpha" type="matrix" values="0 0 0 0 0 0 0 0 0 0 0 0 0 0 0 0 0 0 127 0" result="hardAlpha"/>
<feOffset dx="6" dy="8"/>
<feGaussianBlur stdDeviation="5"/>
<feColorMatrix type="matrix" values="0 0 0 0 0.133333 0 0 0 0 0.466667 0 0 0 0 0.835294 0 0 0 0.09 0"/>
<feBlend mode="normal" in2="effect1_dropShadow_1304_1749" result="effect2_dropShadow_1304_1749"/>
<feColorMatrix in="SourceAlpha" type="matrix" values="0 0 0 0 0 0 0 0 0 0 0 0 0 0 0 0 0 0 127 0" result="hardAlpha"/>
<feOffset dx="15" dy="17"/>
<feGaussianBlur stdDeviation="6.5"/>
<feColorMatrix type="matrix" values="0 0 0 0 0.133333 0 0 0 0 0.466667 0 0 0 0 0.835294 0 0 0 0.05 0"/>
<feBlend mode="normal" in2="effect2_dropShadow_1304_1749" result="effect3_dropShadow_1304_1749"/>
<feColorMatrix in="SourceAlpha" type="matrix" values="0 0 0 0 0 0 0 0 0 0 0 0 0 0 0 0 0 0 127 0" result="hardAlpha"/>
<feOffset dx="26" dy="30"/>
<feGaussianBlur stdDeviation="8"/>
<feColorMatrix type="matrix" values="0 0 0 0 0.133333 0 0 0 0 0.466667 0 0 0 0 0.835294 0 0 0 0.01 0"/>
<feBlend mode="normal" in2="effect3_dropShadow_1304_1749" result="effect4_dropShadow_1304_1749"/>
<feBlend mode="normal" in="SourceGraphic" in2="effect4_dropShadow_1304_1749" result="shape"/>
</filter>
<linearGradient id="paint0_linear_1304_1749" x1="143.641" y1="47.4671" x2="6.30553" y2="55.7736" gradientUnits="userSpaceOnUse">
<stop offset="0.104167" stop-color="#52C1FF"/>
<stop offset="0.9999" stop-color="#2F93EF"/>
</linearGradient>
<linearGradient id="paint1_linear_1304_1749" x1="73.6176" y1="3" x2="73.6176" y2="126.14" gradientUnits="userSpaceOnUse">
<stop stop-color="#63B3FD"/>
<stop offset="0.614583" stop-color="#87C2F9"/>
</linearGradient>
<linearGradient id="paint2_linear_1304_1749" x1="47.0113" y1="-10.3528" x2="112.993" y2="103.931" gradientUnits="userSpaceOnUse">
<stop stop-color="#27B5F2"/>
<stop offset="0.833333" stop-color="#036095"/>
</linearGradient>
<linearGradient id="paint3_linear_1304_1749" x1="357.153" y1="53.7825" x2="737.41" y2="164.772" gradientUnits="userSpaceOnUse">
<stop stop-color="#3195EF"/>
<stop offset="0.480769" stop-color="#41AAF7"/>
<stop offset="1" stop-color="#52C1FF"/>
</linearGradient>
<linearGradient id="paint4_linear_1304_1749" x1="357.153" y1="53.7825" x2="737.41" y2="164.772" gradientUnits="userSpaceOnUse">
<stop stop-color="#3195EF"/>
<stop offset="0.480769" stop-color="#41AAF7"/>
<stop offset="1" stop-color="#52C1FF"/>
</linearGradient>
<linearGradient id="paint5_linear_1304_1749" x1="357.153" y1="53.7825" x2="737.41" y2="164.772" gradientUnits="userSpaceOnUse">
<stop stop-color="#3195EF"/>
<stop offset="0.480769" stop-color="#41AAF7"/>
<stop offset="1" stop-color="#52C1FF"/>
</linearGradient>
<linearGradient id="paint6_linear_1304_1749" x1="357.153" y1="53.7825" x2="737.41" y2="164.772" gradientUnits="userSpaceOnUse">
<stop stop-color="#3195EF"/>
<stop offset="0.480769" stop-color="#41AAF7"/>
<stop offset="1" stop-color="#52C1FF"/>
</linearGradient>
<linearGradient id="paint7_linear_1304_1749" x1="357.153" y1="53.7825" x2="737.41" y2="164.772" gradientUnits="userSpaceOnUse">
<stop stop-color="#3195EF"/>
<stop offset="0.480769" stop-color="#41AAF7"/>
<stop offset="1" stop-color="#52C1FF"/>
</linearGradient>
<linearGradient id="paint8_linear_1304_1749" x1="357.153" y1="53.7825" x2="737.41" y2="164.772" gradientUnits="userSpaceOnUse">
<stop stop-color="#3195EF"/>
<stop offset="0.480769" stop-color="#41AAF7"/>
<stop offset="1" stop-color="#52C1FF"/>
</linearGradient>
<linearGradient id="paint9_linear_1304_1749" x1="357.153" y1="53.7825" x2="737.41" y2="164.772" gradientUnits="userSpaceOnUse">
<stop stop-color="#3195EF"/>
<stop offset="0.480769" stop-color="#41AAF7"/>
<stop offset="1" stop-color="#52C1FF"/>
</linearGradient>
<linearGradient id="paint10_linear_1304_1749" x1="357.153" y1="53.7825" x2="737.41" y2="164.772" gradientUnits="userSpaceOnUse">
<stop stop-color="#3195EF"/>
<stop offset="0.480769" stop-color="#41AAF7"/>
<stop offset="1" stop-color="#52C1FF"/>
</linearGradient>
<linearGradient id="paint11_linear_1304_1749" x1="357.153" y1="53.7825" x2="737.41" y2="164.772" gradientUnits="userSpaceOnUse">
<stop stop-color="#3195EF"/>
<stop offset="0.480769" stop-color="#41AAF7"/>
<stop offset="1" stop-color="#52C1FF"/>
</linearGradient>
<linearGradient id="paint12_linear_1304_1749" x1="357.153" y1="53.7825" x2="737.41" y2="164.772" gradientUnits="userSpaceOnUse">
<stop stop-color="#3195EF"/>
<stop offset="0.480769" stop-color="#41AAF7"/>
<stop offset="1" stop-color="#52C1FF"/>
</linearGradient>
<linearGradient id="paint13_linear_1304_1749" x1="357.153" y1="53.7825" x2="737.41" y2="164.772" gradientUnits="userSpaceOnUse">
<stop stop-color="#3195EF"/>
<stop offset="0.480769" stop-color="#41AAF7"/>
<stop offset="1" stop-color="#52C1FF"/>
</linearGradient>
</defs>
</svg>
