<svg width="518" height="90" viewBox="0 0 518 90" fill="none" xmlns="http://www.w3.org/2000/svg">
<rect width="89.5112" height="89.5084" rx="12" fill="url(#paint0_radial_1218_1602)"/>
<path d="M71.2326 16.0199C60.656 17.3959 51.3937 21.5648 43.8158 28.0751C39.0924 32.1414 35.0057 37.1317 31.6988 42.9023H31.6783C30.7952 44.4836 29.9327 46.1061 29.1522 47.7901C28.7826 48.5705 28.9469 49.5152 29.563 50.1313L39.3799 59.9482C39.996 60.5643 40.9407 60.7286 41.7211 60.3589C43.4051 59.5785 45.0274 58.716 46.6088 57.8329C52.3796 54.5059 57.3701 50.4193 61.436 45.6955C67.9461 38.1176 72.1151 28.8553 73.4912 18.2788C73.6761 16.9644 72.5469 15.8351 71.2326 16.0199Z" fill="#ECFEFF"/>
<path d="M20.5654 60.2993C18.1215 62.7432 16.7224 67.8109 16.0447 71.0455C15.7418 72.4831 17.0254 73.7666 18.4629 73.4637C21.6975 72.786 26.765 71.3869 29.2091 68.943C32.9621 65.19 31.4989 62.7846 29.1115 60.3971C26.7216 58.0123 24.3159 56.5488 20.5654 60.2993Z" fill="#ECFEFF"/>
<path d="M47.1632 62.2118L47.6741 66.2319C47.8589 67.7106 49.5224 68.532 50.7957 67.7311C59.4599 62.2991 61.7882 55.9637 62.0038 51.0756C58.1454 55.011 53.6918 58.4866 48.6598 61.39C48.1361 61.6826 47.6407 61.9551 47.1632 62.2118Z" fill="#ECFEFF"/>
<path d="M23.2788 41.8347L27.2989 42.3456C27.5479 41.8835 27.8123 41.4035 28.0921 40.9029L29.2679 38.7979H29.368C31.9813 34.6007 35.0182 30.8349 38.4094 27.5076C33.5217 27.7309 27.2013 30.067 21.7796 38.7131C20.9786 39.9864 21.8002 41.6499 23.2788 41.8347Z" fill="#ECFEFF"/>
<path d="M137.591 71.0042C134.091 71.0042 130.871 70.3975 127.931 69.1842C124.991 67.9242 122.447 66.1742 120.301 63.9342C118.154 61.6475 116.474 58.9642 115.261 55.8842C114.094 52.8042 113.511 49.4441 113.511 45.8041C113.511 42.2108 114.094 38.9208 115.261 35.9341C116.474 32.9008 118.177 30.2641 120.371 28.0241C122.564 25.7375 125.107 23.9875 128.001 22.7741C130.894 21.5608 134.067 20.9541 137.521 20.9541C139.807 20.9541 142.071 21.3275 144.311 22.0742C146.551 22.7741 148.604 23.7541 150.471 25.0142C152.384 26.2742 153.947 27.7208 155.161 29.3541L151.381 33.2741C150.214 31.8741 148.861 30.6608 147.321 29.6341C145.827 28.6075 144.241 27.8141 142.561 27.2542C140.881 26.6941 139.201 26.4141 137.521 26.4141C134.907 26.4141 132.457 26.9041 130.171 27.8842C127.931 28.8175 125.994 30.1475 124.361 31.8741C122.727 33.6008 121.444 35.6541 120.511 38.0341C119.624 40.4141 119.181 43.0041 119.181 45.8041C119.181 48.6975 119.624 51.3575 120.511 53.7841C121.444 56.2108 122.751 58.3108 124.431 60.0841C126.157 61.8108 128.164 63.1641 130.451 64.1441C132.784 65.0775 135.374 65.5442 138.221 65.5442C139.901 65.5442 141.581 65.3108 143.261 64.8442C144.941 64.3308 146.481 63.6308 147.881 62.7442C149.281 61.8575 150.471 60.8542 151.451 59.7341L154.251 64.2841C153.177 65.5908 151.731 66.7575 149.911 67.7841C148.137 68.7641 146.177 69.5575 144.031 70.1642C141.884 70.7242 139.737 71.0042 137.591 71.0042Z" fill="#164E63"/>
<path d="M161.235 70.3041V18.5042H166.485V70.3041H161.235Z" fill="#164E63"/>
<path d="M190.834 71.0042C187.194 71.0042 183.951 70.2108 181.104 68.6241C178.304 67.0375 176.111 64.8208 174.524 61.9742C172.938 59.1275 172.144 55.8608 172.144 52.1742C172.144 49.3275 172.588 46.7608 173.474 44.4741C174.361 42.1408 175.598 40.1108 177.184 38.3841C178.818 36.6575 180.754 35.3275 182.994 34.3941C185.234 33.4141 187.661 32.9241 190.274 32.9241C192.748 32.9241 194.988 33.3675 196.994 34.2541C199.048 35.1408 200.798 36.3775 202.244 37.9641C203.738 39.5041 204.858 41.3475 205.604 43.4942C206.351 45.6408 206.678 47.9975 206.584 50.5642L206.514 53.0141H176.064L175.294 48.6042H202.524L201.264 49.7941V48.1142C201.171 46.4342 200.681 44.8242 199.794 43.2842C198.908 41.6975 197.648 40.4142 196.014 39.4342C194.428 38.4542 192.514 37.9641 190.274 37.9641C187.661 37.9641 185.398 38.5008 183.484 39.5742C181.571 40.6008 180.101 42.1408 179.074 44.1941C178.048 46.2475 177.534 48.7908 177.534 51.8242C177.534 54.7175 178.094 57.2375 179.214 59.3842C180.334 61.4842 181.921 63.1175 183.974 64.2841C186.074 65.4508 188.594 66.0341 191.534 66.0341C193.261 66.0341 194.964 65.7541 196.644 65.1941C198.371 64.5875 200.261 63.4208 202.314 61.6941L205.044 65.4742C203.971 66.5475 202.688 67.5042 201.194 68.3442C199.701 69.1375 198.068 69.7908 196.294 70.3041C194.521 70.7708 192.701 71.0042 190.834 71.0042Z" fill="#164E63"/>
<path d="M226.921 71.0042C223.748 71.0042 220.878 70.1875 218.311 68.5541C215.744 66.8741 213.714 64.6108 212.221 61.7641C210.728 58.8708 209.981 55.6041 209.981 51.9641C209.981 48.2775 210.751 45.0108 212.291 42.1642C213.831 39.3175 215.884 37.0775 218.451 35.4441C221.064 33.8108 223.981 32.9941 227.201 32.9941C229.114 32.9941 230.888 33.2741 232.521 33.8341C234.154 34.3942 235.601 35.1875 236.861 36.2141C238.168 37.1941 239.241 38.3608 240.081 39.7142C240.968 41.0208 241.574 42.4442 241.901 43.9841L240.361 43.2141L240.571 33.7641H245.821V70.3041H240.501V61.3442L241.901 60.4342C241.574 61.8342 240.944 63.1875 240.011 64.4942C239.078 65.7542 237.934 66.8742 236.581 67.8542C235.274 68.8342 233.781 69.6042 232.101 70.1642C230.468 70.7242 228.741 71.0042 226.921 71.0042ZM228.111 65.9641C230.538 65.9641 232.708 65.3808 234.621 64.2141C236.534 63.0008 238.028 61.3442 239.101 59.2442C240.221 57.0975 240.781 54.6708 240.781 51.9641C240.781 49.2575 240.221 46.8541 239.101 44.7542C238.028 42.6541 236.534 40.9975 234.621 39.7841C232.708 38.5708 230.538 37.9641 228.111 37.9641C225.638 37.9641 223.444 38.5708 221.531 39.7841C219.664 40.9975 218.171 42.6541 217.051 44.7542C215.978 46.8541 215.441 49.2575 215.441 51.9641C215.441 54.6242 215.978 57.0275 217.051 59.1741C218.124 61.2741 219.618 62.9308 221.531 64.1441C223.444 65.3575 225.638 65.9641 228.111 65.9641Z" fill="#164E63"/>
<path d="M254.649 70.3041V33.7641H259.899L260.039 43.4942L259.479 42.1642C259.993 40.5308 260.809 39.0142 261.929 37.6142C263.096 36.2142 264.473 35.0941 266.059 34.2541C267.646 33.4141 269.396 32.9941 271.309 32.9941C272.103 32.9941 272.849 33.0641 273.549 33.2041C274.249 33.2975 274.833 33.4375 275.299 33.6241L273.829 39.5041C273.223 39.2241 272.593 39.0375 271.939 38.9442C271.333 38.8041 270.749 38.7341 270.189 38.7341C268.603 38.7341 267.179 39.0141 265.919 39.5742C264.659 40.1341 263.586 40.9275 262.699 41.9541C261.813 42.9342 261.136 44.0775 260.669 45.3842C260.203 46.6908 259.969 48.0908 259.969 49.5842V70.3041H254.649Z" fill="#164E63"/>
<path d="M280.623 70.3041V21.3041H291.123V60.8541H313.313V70.3041H280.623Z" fill="#164E63"/>
<path d="M332.767 71.0042C329.687 71.0042 326.91 70.1641 324.437 68.4841C321.963 66.8041 320.003 64.5175 318.557 61.6241C317.11 58.7308 316.387 55.4175 316.387 51.6842C316.387 47.9508 317.11 44.6608 318.557 41.8141C320.05 38.9208 322.057 36.6575 324.577 35.0242C327.097 33.3442 329.967 32.5041 333.187 32.5041C335.007 32.5041 336.663 32.7842 338.157 33.3442C339.697 33.8575 341.027 34.5808 342.147 35.5142C343.313 36.4475 344.293 37.5208 345.087 38.7341C345.88 39.9475 346.44 41.2541 346.767 42.6542L344.667 42.3042V33.2741H354.537V70.3041H344.527V61.4142L346.767 61.2042C346.393 62.5108 345.787 63.7475 344.947 64.9142C344.107 66.0808 343.057 67.1308 341.797 68.0642C340.583 68.9508 339.207 69.6741 337.667 70.2341C336.127 70.7475 334.493 71.0042 332.767 71.0042ZM335.497 62.3941C337.363 62.3941 338.997 61.9508 340.397 61.0642C341.797 60.1775 342.87 58.9408 343.617 57.3542C344.41 55.7208 344.807 53.8308 344.807 51.6842C344.807 49.5841 344.41 47.7408 343.617 46.1541C342.87 44.5675 341.797 43.3308 340.397 42.4441C338.997 41.5108 337.363 41.0441 335.497 41.0441C333.677 41.0441 332.067 41.5108 330.667 42.4441C329.313 43.3308 328.24 44.5675 327.447 46.1541C326.653 47.7408 326.257 49.5841 326.257 51.6842C326.257 53.8308 326.653 55.7208 327.447 57.3542C328.24 58.9408 329.313 60.1775 330.667 61.0642C332.067 61.9508 333.677 62.3941 335.497 62.3941Z" fill="#164E63"/>
<path d="M375.159 71.0042C372.452 71.0042 370.119 70.4208 368.159 69.2542C366.245 68.0408 364.752 66.3375 363.679 64.1441C362.652 61.9041 362.139 59.2208 362.139 56.0942V33.2741H372.079V54.4841C372.079 56.1641 372.359 57.6341 372.919 58.8941C373.479 60.1075 374.272 61.0408 375.299 61.6941C376.325 62.3475 377.585 62.6742 379.079 62.6742C380.152 62.6742 381.155 62.5108 382.089 62.1842C383.022 61.8108 383.815 61.2975 384.469 60.6441C385.122 59.9908 385.635 59.2208 386.009 58.3342C386.382 57.4475 386.569 56.4908 386.569 55.4641V33.2741H396.509V70.3041H387.059L386.709 62.6742L388.529 61.8342C387.969 63.5608 387.035 65.1242 385.729 66.5242C384.422 67.9242 382.859 69.0208 381.039 69.8142C379.219 70.6075 377.259 71.0042 375.159 71.0042Z" fill="#164E63"/>
<path d="M405.111 70.3041V33.2741H414.63L414.91 40.8341L412.951 41.6742C413.464 39.9941 414.374 38.4775 415.681 37.1241C417.034 35.7242 418.644 34.6041 420.51 33.7641C422.377 32.9241 424.337 32.5041 426.391 32.5041C429.191 32.5041 431.524 33.0641 433.391 34.1841C435.304 35.3041 436.727 37.0075 437.66 39.2941C438.64 41.5341 439.13 44.3108 439.13 47.6242V70.3041H429.19V48.3941C429.19 46.7142 428.957 45.3141 428.491 44.1941C428.024 43.0741 427.3 42.2575 426.32 41.7442C425.387 41.1842 424.22 40.9508 422.82 41.0441C421.7 41.0441 420.651 41.2308 419.671 41.6041C418.737 41.9308 417.92 42.4208 417.22 43.0741C416.567 43.7275 416.031 44.4741 415.611 45.3141C415.237 46.1542 415.051 47.0641 415.051 48.0441V70.3041H410.15C409.077 70.3041 408.12 70.3041 407.28 70.3041C406.44 70.3041 405.717 70.3041 405.111 70.3041Z" fill="#164E63"/>
<path d="M463.355 71.0042C459.809 71.0042 456.635 70.1641 453.835 68.4841C451.035 66.8041 448.819 64.5175 447.185 61.6241C445.599 58.7308 444.805 55.4408 444.805 51.7542C444.805 48.1142 445.599 44.8475 447.185 41.9541C448.819 39.0141 451.035 36.7042 453.835 35.0242C456.635 33.3442 459.809 32.5041 463.355 32.5041C466.669 32.5041 469.702 33.1108 472.455 34.3242C475.209 35.5375 477.355 37.2175 478.895 39.3641L473.435 45.9441C472.782 45.0575 471.965 44.2642 470.985 43.5641C470.005 42.8175 468.932 42.2341 467.765 41.8141C466.645 41.3941 465.479 41.1842 464.265 41.1842C462.352 41.1842 460.649 41.6508 459.155 42.5841C457.709 43.4708 456.565 44.7075 455.725 46.2941C454.885 47.8808 454.465 49.7008 454.465 51.7542C454.465 53.7608 454.885 55.5575 455.725 57.1441C456.612 58.6842 457.802 59.9442 459.295 60.9242C460.789 61.8575 462.469 62.3242 464.335 62.3242C465.549 62.3242 466.692 62.1608 467.765 61.8342C468.839 61.4608 469.842 60.9242 470.775 60.2242C471.755 59.5242 472.642 58.6842 473.435 57.7042L478.825 64.2841C477.239 66.2908 475.045 67.9242 472.245 69.1842C469.445 70.3975 466.482 71.0042 463.355 71.0042Z" fill="#164E63"/>
<path d="M483.795 70.3041V18.5042H493.595V40.8341L491.635 41.6742C492.148 39.9941 493.058 38.4775 494.365 37.1241C495.718 35.7242 497.328 34.6041 499.195 33.7641C501.062 32.9241 503.022 32.5041 505.075 32.5041C507.875 32.5041 510.208 33.0641 512.075 34.1841C513.988 35.3041 515.412 37.0075 516.345 39.2941C517.325 41.5341 517.815 44.3108 517.815 47.6242V70.3041H507.875V48.3941C507.875 46.7142 507.642 45.3141 507.175 44.1941C506.708 43.0741 505.985 42.2575 505.005 41.7442C504.072 41.1842 502.905 40.9508 501.505 41.0441C500.385 41.0441 499.335 41.2308 498.355 41.6041C497.422 41.9308 496.605 42.4208 495.905 43.0741C495.252 43.7275 494.715 44.4741 494.295 45.3141C493.922 46.1542 493.735 47.0641 493.735 48.0441V70.3041H488.835C487.762 70.3041 486.805 70.3041 485.965 70.3041C485.125 70.3041 484.402 70.3041 483.795 70.3041Z" fill="#164E63"/>
<defs>
<radialGradient id="paint0_radial_1218_1602" cx="0" cy="0" r="1" gradientUnits="userSpaceOnUse" gradientTransform="translate(44.7556 44.7542) rotate(90) scale(44.7542 44.7556)">
<stop stop-color="#06B6D4"/>
<stop offset="1" stop-color="#00AAC7"/>
</radialGradient>
</defs>
</svg>
